<svg id="Capa_1" enable-background="new 0 0 512 512" height="512" viewBox="0 0 512 512" width="512" xmlns="http://www.w3.org/2000/svg"><g><path d="m512 124.998c0-20.718-16.855-37.573-37.573-37.573h-52.261v-19.768c0-16.101-13.099-29.2-29.2-29.2s-29.2 13.099-29.2 29.2v19.769h-140.073c-4.15 0-7.515 3.364-7.515 7.515s3.365 7.515 7.515 7.515h140.073v19.769c0 16.101 13.099 29.2 29.2 29.2s29.2-13.099 29.2-29.2v-19.769h52.261c12.43 0 22.544 10.113 22.544 22.544v46.32h-481.942v-46.32c0-12.431 10.113-22.544 22.544-22.544h52.261v19.769c0 16.101 13.099 29.2 29.2 29.2s29.2-13.099 29.2-29.2v-19.769h45.4c4.15 0 7.515-3.365 7.515-7.515s-3.365-7.515-7.515-7.515h-45.4v-19.769c0-16.101-13.099-29.2-29.2-29.2s-29.2 13.099-29.2 29.2v19.769h-52.261c-20.718-.001-37.573 16.854-37.573 37.572v310.972c0 20.718 16.855 37.573 37.573 37.573h311.778c4.151 0 7.515-3.364 7.515-7.515s-3.364-7.515-7.515-7.515h-311.778c-12.431 0-22.544-10.113-22.544-22.544v-249.621h481.941v249.622c0 12.431-10.114 22.544-22.544 22.544h-95.016c-4.151 0-7.515 3.365-7.515 7.515s3.364 7.515 7.515 7.515h95.017c20.718 0 37.573-16.855 37.573-37.573zm-104.864-2.775c0 7.814-6.357 14.17-14.17 14.17s-14.17-6.357-14.17-14.17v-54.566c0-7.814 6.357-14.171 14.17-14.171s14.17 6.357 14.17 14.171zm-302.272-54.566c0-7.814 6.357-14.171 14.17-14.171s14.17 6.357 14.17 14.171v54.566c0 7.814-6.357 14.17-14.17 14.17s-14.17-6.357-14.17-14.17z"/><path d="m169.42 362.679c2.474-3.332 1.779-8.039-1.553-10.513-3.333-2.475-8.039-1.779-10.513 1.553-5.87 7.906-10.335 13.752-13.653 18.098-10.007 13.103-16.048 21.012-12.049 34.015 2.402 7.803 8.286 13.781 16.144 16.4 3.257 1.086 5.611 1.87 35.971 1.87 12.318 0 28.469-.128 49.377-.39 13.366-.169 24.104-11.18 23.937-24.547-.166-13.2-11.039-23.939-24.238-23.939l-.309.001c-10.326.13-21.06.228-31.001.287 8.683-11.83 17.869-24.673 27.838-38.916 10.22-14.602 16.915-28.527 19.898-41.387.603-3.21 1.287-8.091 1.378-11.353 0-34.792-28.305-63.098-63.097-63.098-30.083 0-56.122 21.404-61.915 50.894-2.577 13.118 5.999 25.885 19.115 28.462 6.355 1.247 12.816-.052 18.192-3.663 5.375-3.611 9.023-9.098 10.271-15.453 1.338-6.81 7.367-11.752 14.336-11.752 7.672 0 13.963 5.855 14.563 13.432l-.332 2.6c-1.746 6.595-5.827 14.503-12.134 23.514-5.018 7.17-9.943 14.131-14.639 20.689-2.416 3.375-1.639 8.068 1.735 10.485s8.069 1.639 10.485-1.735c4.727-6.602 9.684-13.607 14.732-20.82 7.492-10.703 12.371-20.418 14.501-28.875.259-1.414.708-4.472.702-5.905-.654-15.933-13.662-28.414-29.614-28.414-14.133 0-26.364 10.045-29.084 23.883-.855 4.88-5.976 8.325-10.818 7.267-4.986-.979-8.245-5.832-7.266-10.817 4.412-22.46 24.249-38.762 47.167-38.762 26.505 0 48.068 21.564 48.068 48.069-.054 1.491-.728 6.474-.988 7.954-2.546 10.98-8.458 23.149-17.571 36.168-13.368 19.099-25.309 35.652-36.507 50.602-3.757 4.691.022 12.224 6.026 12.02 13.466-.021 30.285-.147 46.103-.346l.162-.001c5.015 0 9.147 4.082 9.21 9.098.064 5.081-4.018 9.266-9.098 9.33-20.843.262-36.933.389-49.187.389-25.764 0-29.623-.568-31.22-1.1-3.241-1.08-5.561-3.411-6.53-6.56-1.597-5.193-.009-7.854 9.688-20.551 3.286-4.303 7.787-10.197 13.717-18.183z"/><path d="m298.196 354.565c0 19.872 16.167 36.039 36.039 36.039s36.039-16.167 36.039-36.039-16.167-36.039-36.039-36.039-36.039 16.167-36.039 36.039zm36.039-21.01c11.585 0 21.01 9.425 21.01 21.01s-9.425 21.009-21.01 21.009-21.01-9.425-21.01-21.009c0-11.585 9.425-21.01 21.01-21.01z"/><path d="m359.683 264.406c10.661-7.987 12.866-23.182 4.915-33.87-7.977-10.726-23.196-12.962-33.922-4.984-2.279 1.695-55.892 42.368-65.142 118.489-.529 3.471-.797 7.011-.797 10.525 0 38.321 31.177 69.498 69.498 69.498s69.497-31.177 69.497-69.498c0-36.352-28.053-66.275-63.648-69.254 10.256-13.612 19.538-20.859 19.599-20.906zm-9.074-11.98c-.686.525-16.967 13.138-31.353 36.865-3.354 5.143 1.406 12.382 7.459 11.34 2.547-.354 5.077-.533 7.521-.533 30.033 0 54.468 24.434 54.468 54.469 0 30.034-24.434 54.469-54.468 54.469s-54.469-24.434-54.469-54.469c0-2.79.215-5.601.641-8.355.013-.082.023-.163.034-.246 8.44-69.868 57.135-106.815 59.204-108.353 4.039-3.014 9.845-2.207 12.894 1.894 3.021 4.061 2.183 9.835-1.931 12.919z"/></g></svg>