<svg width="94" height="30" viewBox="0 0 94 30" fill="none" xmlns="http://www.w3.org/2000/svg">
<path d="M8.3483 3.044C9.5963 3.044 10.5923 3.164 11.3363 3.404C12.0803 3.644 12.8363 3.992 13.6043 4.448C13.8683 4.592 14.0963 4.712 14.2883 4.808C14.5043 4.904 14.6843 4.952 14.8283 4.952C15.0443 4.952 15.2123 4.832 15.3323 4.592C15.4523 4.328 15.5483 3.92 15.6203 3.368H16.4483C16.3283 4.976 16.2683 7.712 16.2683 11.576H15.4403C15.3443 10.28 15.0443 9.044 14.5403 7.868C14.0603 6.692 13.3643 5.744 12.4523 5.024C11.5643 4.28 10.5203 3.908 9.3203 3.908C8.1443 3.908 7.1843 4.244 6.4403 4.916C5.7203 5.564 5.3603 6.452 5.3603 7.58C5.3603 8.42 5.5403 9.152 5.9003 9.776C6.2603 10.4 6.7643 10.976 7.4123 11.504C8.0603 12.008 9.0563 12.704 10.4003 13.592L11.5523 14.384C12.9683 15.32 14.0843 16.136 14.9003 16.832C15.7163 17.528 16.3763 18.344 16.8803 19.28C17.4083 20.192 17.6723 21.26 17.6723 22.484C17.6723 24.02 17.2763 25.316 16.4843 26.372C15.6923 27.404 14.6123 28.184 13.2443 28.712C11.9003 29.24 10.4003 29.504 8.7443 29.504C7.4003 29.504 6.2843 29.384 5.3963 29.144C4.5083 28.904 3.6923 28.58 2.9483 28.172C2.4203 27.836 2.0123 27.668 1.7243 27.668C1.5083 27.668 1.3403 27.8 1.2203 28.064C1.1003 28.304 1.0043 28.7 0.932298 29.252H0.104298C0.200298 27.74 0.248298 24.5 0.248298 19.532H1.0763C1.2443 22.22 1.8443 24.404 2.8763 26.084C3.9083 27.74 5.4923 28.568 7.6283 28.568C8.9243 28.568 9.9923 28.22 10.8323 27.524C11.6723 26.828 12.0923 25.832 12.0923 24.536C12.0923 23.192 11.6603 22.04 10.7963 21.08C9.9323 20.12 8.5643 19.04 6.6923 17.84C5.2523 16.904 4.1003 16.088 3.2363 15.392C2.3723 14.696 1.6643 13.88 1.1123 12.944C0.560298 11.984 0.284298 10.88 0.284298 9.632C0.284298 8.192 0.644298 6.98 1.3643 5.996C2.1083 4.988 3.0923 4.244 4.3163 3.764C5.5403 3.284 6.8843 3.044 8.3483 3.044ZM34.6997 25.076C34.6997 26.18 34.8677 26.984 35.2037 27.488C35.5637 27.992 36.1637 28.244 37.0037 28.244V29C36.2597 28.928 35.5157 28.892 34.7717 28.892C32.6837 28.892 30.9317 29.06 29.5157 29.396V26.156C28.4117 28.388 26.4797 29.504 23.7197 29.504C21.9197 29.504 20.6117 29.036 19.7957 28.1C19.4117 27.644 19.1237 27.056 18.9317 26.336C18.7637 25.592 18.6797 24.62 18.6797 23.42V14.312C18.6797 13.208 18.4997 12.404 18.1397 11.9C17.8037 11.396 17.2157 11.144 16.3757 11.144V10.388C17.1197 10.46 17.8637 10.496 18.6077 10.496C20.6957 10.496 22.4477 10.328 23.8637 9.992V24.896C23.8637 25.904 24.0077 26.66 24.2957 27.164C24.6077 27.668 25.1837 27.92 26.0237 27.92C26.9837 27.92 27.7997 27.524 28.4717 26.732C29.1677 25.916 29.5157 24.92 29.5157 23.744V14.312C29.5157 13.208 29.3357 12.404 28.9757 11.9C28.6397 11.396 28.0517 11.144 27.2117 11.144V10.388C27.9797 10.46 28.7237 10.496 29.4437 10.496C31.5317 10.496 33.2837 10.328 34.6997 9.992V25.076ZM47.7118 9.884C49.6558 9.884 51.2278 10.688 52.4278 12.296C53.6278 13.88 54.2278 16.184 54.2278 19.208C54.2278 22.736 53.4598 25.34 51.9238 27.02C50.3878 28.676 48.4078 29.504 45.9838 29.504C44.3278 29.504 42.9838 29.084 41.9518 28.244C41.0878 28.172 40.2238 28.268 39.3598 28.532C38.4958 28.796 37.8118 29.144 37.3078 29.576L36.7678 29.252C36.9358 28.652 37.0198 27.98 37.0198 27.236V5.168C37.0198 4.064 36.8398 3.26 36.4798 2.756C36.1438 2.252 35.5558 2 34.7158 2V1.244C35.4598 1.316 36.2038 1.352 36.9478 1.352C39.0358 1.352 40.7878 1.184 42.2038 0.847998V13.304C42.7078 12.2 43.4398 11.36 44.3998 10.784C45.3598 10.184 46.4638 9.884 47.7118 9.884ZM44.8678 28.748C46.1878 28.748 47.1718 28.004 47.8198 26.516C48.4678 25.028 48.7918 22.76 48.7918 19.712C48.7918 16.76 48.5158 14.648 47.9638 13.376C47.4118 12.08 46.6198 11.432 45.5878 11.432C44.8198 11.432 44.1118 11.72 43.4638 12.296C42.8398 12.848 42.4198 13.604 42.2038 14.564V27.776C42.9958 28.424 43.8838 28.748 44.8678 28.748ZM60.3455 9.884C61.2575 9.884 62.0975 10.004 62.8655 10.244C63.6335 10.46 64.2215 10.712 64.6295 11C64.8695 11.168 65.0855 11.252 65.2775 11.252C65.4935 11.252 65.6735 11.144 65.8175 10.928C65.9855 10.688 66.0935 10.352 66.1415 9.92H66.8975C66.8015 11.144 66.7535 13.256 66.7535 16.256H65.9975C65.7815 14.672 65.3015 13.352 64.5575 12.296C63.8375 11.216 62.7815 10.676 61.3895 10.676C60.6695 10.676 60.0695 10.88 59.5895 11.288C59.1335 11.696 58.9055 12.26 58.9055 12.98C58.9055 13.796 59.1815 14.504 59.7335 15.104C60.2855 15.68 61.1495 16.388 62.3255 17.228L63.3695 17.984C64.8335 19.088 65.9135 20.072 66.6095 20.936C67.3055 21.8 67.6535 22.88 67.6535 24.176C67.6535 25.232 67.3415 26.168 66.7175 26.984C66.1175 27.8 65.3015 28.424 64.2695 28.856C63.2375 29.288 62.0975 29.504 60.8495 29.504C59.5295 29.504 58.4015 29.252 57.4655 28.748C56.6975 28.364 56.1455 28.112 55.8095 27.992C55.5695 27.92 55.3535 28.004 55.1615 28.244C54.9935 28.46 54.8615 28.796 54.7655 29.252H54.0095C54.1055 27.884 54.1535 25.484 54.1535 22.052H54.9095C55.3895 26.468 57.0095 28.676 59.7695 28.676C60.4655 28.676 61.0535 28.472 61.5335 28.064C62.0375 27.632 62.2895 26.984 62.2895 26.12C62.2895 25.448 62.1335 24.848 61.8215 24.32C61.5335 23.792 61.1615 23.324 60.7055 22.916C60.2495 22.508 59.5655 21.944 58.6535 21.224C57.5735 20.36 56.7455 19.664 56.1695 19.136C55.6175 18.608 55.1375 17.984 54.7295 17.264C54.3455 16.544 54.1535 15.74 54.1535 14.852C54.1535 13.316 54.7535 12.104 55.9535 11.216C57.1535 10.328 58.6175 9.884 60.3455 9.884Z" fill="black"/>
<path d="M78.0904 4.232C77.2744 4.28 76.6864 4.376 76.3264 4.52C75.9664 4.664 75.7144 4.94 75.5704 5.348C75.4504 5.756 75.3904 6.416 75.3904 7.328V25.184C75.3904 26.096 75.4504 26.756 75.5704 27.164C75.7144 27.572 75.9664 27.848 76.3264 27.992C76.6864 28.136 77.2744 28.232 78.0904 28.28V29C76.7944 28.928 74.9824 28.892 72.6544 28.892C70.0864 28.892 68.1904 28.928 66.9664 29V28.28C67.7584 28.232 68.3344 28.136 68.6944 27.992C69.0784 27.848 69.3304 27.572 69.4504 27.164C69.5944 26.756 69.6664 26.096 69.6664 25.184V7.328C69.6664 6.416 69.5944 5.756 69.4504 5.348C69.3304 4.94 69.0784 4.664 68.6944 4.52C68.3344 4.376 67.7584 4.28 66.9664 4.232V3.512C68.1904 3.584 70.0864 3.62 72.6544 3.62C74.9824 3.62 76.7944 3.584 78.0904 3.512V4.232ZM83.9283 10.388H88.1763V11.108H83.9283V25.652C83.9283 26.372 84.0483 26.888 84.2883 27.2C84.5523 27.488 84.9603 27.632 85.5123 27.632C86.5443 27.632 87.3603 26.912 87.9603 25.472L88.5723 25.796C87.6603 28.268 86.0163 29.504 83.6403 29.504C82.0563 29.504 80.8563 29.096 80.0403 28.28C79.5363 27.776 79.1883 27.152 78.9963 26.408C78.8283 25.64 78.7443 24.596 78.7443 23.276V11.108H75.7203V10.388H78.7443V5.636C80.7363 5.636 82.4643 5.252 83.9283 4.484V10.388ZM90.0326 23.96C90.9686 23.96 91.7126 24.212 92.2646 24.716C92.8166 25.196 93.0926 25.868 93.0926 26.732C93.0926 27.596 92.8166 28.28 92.2646 28.784C91.7126 29.264 90.9686 29.504 90.0326 29.504C89.0966 29.504 88.3526 29.264 87.8006 28.784C87.2486 28.28 86.9726 27.596 86.9726 26.732C86.9726 25.868 87.2486 25.196 87.8006 24.716C88.3526 24.212 89.0966 23.96 90.0326 23.96Z" fill="#8F48EA"/>
</svg>
